<svg width="200" height="200" viewBox="20 20 160 160" fill="none" xmlns="http://www.w3.org/2000/svg">
<style>
@media (prefers-color-scheme: dark) {
  #bg {
    fill: transparent;
  }
}
</style>
<rect id="bg" width="160" height="160" rx="25" x="20" y="20" fill="#0F0F12"/>
<path d="M68.5009 73.4355L131.499 126.298L105.764 156.968C91.1665 174.365 65.2302 176.634 47.8336 162.036V162.036C30.437 147.439 28.1679 121.502 42.7654 104.106L68.5009 73.4355Z" fill="#86EFAC" fill-opacity="0.5"/>
<path d="M55.4796 117.738C51.4174 123.982 46.6517 138.865 60.0861 148.442" stroke="#86EFAC" stroke-width="3.24627" stroke-linecap="round" stroke-dasharray="6.49 12.99 21.64 12.99"/>
<path d="M152.165 37.6985C169.561 52.2959 171.831 78.2325 157.234 95.629L105.762 156.97L105.07 157.774C90.3568 174.433 64.9565 176.407 47.8316 162.038L47.0273 161.345C30.6332 146.865 28.4611 122.036 42.0922 104.929L42.7634 104.108L94.2348 42.7667C108.832 25.3704 134.768 23.1014 152.165 37.6985ZM70.5554 79.4033L46.9078 107.585C34.2316 122.693 36.2022 145.217 51.3092 157.893C66.4166 170.57 88.9404 168.599 101.617 153.492L125.265 125.31L70.5554 79.4033ZM148.687 41.8429C133.58 29.1666 111.056 31.137 98.3792 46.2442L74.033 75.2589L128.742 121.166L153.089 92.1508C165.765 77.0433 163.795 54.5196 148.687 41.8429Z" fill="#86EFAC"/>
<path d="M152.094 37.6534C169.319 52.2839 170.902 78.8378 155.59 97.0857L106.901 155.111C91.5354 173.423 64.9763 176.434 47.5797 161.837C40.2968 155.726 35.7762 147.497 34.1066 138.652C36.3203 142.78 39.346 146.542 43.1663 149.688C59.3307 163.002 83.5779 160.282 97.3241 143.612L142.294 89.0755C156.04 72.4054 154.079 48.099 137.915 34.785C134.334 31.8349 130.355 29.6716 126.182 28.2733C135.294 28.2874 144.373 31.2894 151.858 37.4543C151.937 37.5196 152.015 37.5876 152.094 37.6534Z" fill="#86EFAC" fill-opacity="0.25"/>
</svg>
